<svg width="320" height="120" viewBox="0 0 320 120" fill="none" xmlns="http://www.w3.org/2000/svg">
  <rect x="8" y="8" width="304" height="104" rx="24" fill="#F6EBDD"/>
  <circle cx="160" cy="60" r="24" fill="#F6EBDD" stroke="#E4B794" stroke-width="3"/>
  <path d="M160 28C171 28 181 32 188 39L180 46C175 41 168 38 160 38V28Z" fill="#A8744D"/>
  <path d="M194 41C201 48 205 58 205 68L194 66C194 59 191 52 186 47L194 41Z" fill="#C78D63"/>
  <path d="M192 79C186 88 177 94 166 96L164 85C171 84 178 80 182 74L192 79Z" fill="#D5A27C"/>
  <path d="M154 96C143 95 133 90 126 82L134 75C139 80 146 84 154 85V96Z" fill="#E4B794"/>
  <path d="M121 75C116 67 114 57 116 47L127 49C126 56 128 63 132 69L121 75Z" fill="#C78D63"/>
  <path d="M130 39C138 32 148 28 160 28V38C152 38 145 41 139 46L130 39Z" fill="#D5A27C"/>
  <circle cx="160" cy="25" r="7" fill="#A8744D"/>
  <circle cx="197" cy="44" r="7" fill="#C78D63"/>
  <circle cx="194" cy="82" r="7" fill="#D5A27C"/>
  <circle cx="160" cy="98" r="7" fill="#E4B794"/>
  <circle cx="123" cy="82" r="7" fill="#C78D63"/>
  <circle cx="123" cy="44" r="7" fill="#D5A27C"/>
</svg>
